<?xml version="1.0" encoding="UTF-8"?>
<svg xmlns="http://www.w3.org/2000/svg" viewBox="0 0 64 64" width="64" height="64" id="si-reply" role="img" aria-label="si-reply">
  <defs>
<linearGradient id="si-blue" x1="0" y1="0" x2="1" y2="1"><stop stop-color="#74ECFF"/><stop offset=".5" stop-color="#4D91FF"/><stop offset="1" stop-color="#6554E9"/></linearGradient>
<linearGradient id="si-purple" x1="0" y1="0" x2="1" y2="1"><stop stop-color="#E09BFF"/><stop offset=".48" stop-color="#8D63FF"/><stop offset="1" stop-color="#4F64EE"/></linearGradient>
<linearGradient id="si-mint" x1="0" y1="0" x2="1" y2="1"><stop stop-color="#83F4CF"/><stop offset=".52" stop-color="#34C8D8"/><stop offset="1" stop-color="#4E72F4"/></linearGradient>
<linearGradient id="si-warm" x1="0" y1="0" x2="1" y2="1"><stop stop-color="#FFE276"/><stop offset=".5" stop-color="#FF8F71"/><stop offset="1" stop-color="#AF62F2"/></linearGradient>
<linearGradient id="si-glass" x1="0" y1="0" x2="0" y2="1"><stop stop-color="#FFFFFF" stop-opacity=".95"/><stop offset="1" stop-color="#DCEBFF" stop-opacity=".7"/></linearGradient>
<filter id="si-shadow" x="-45%" y="-45%" width="190%" height="200%"><feDropShadow dx="0" dy="5" stdDeviation="4" flood-color="#4065C7" flood-opacity=".23"/></filter>
</defs>
  <g>
    <g filter="url(#si-shadow)"><rect x="9" y="17" width="35" height="27" rx="9" fill="url(#si-purple)" transform="rotate(-7 9 17)"/><path d="m16 39-3 10 11-7" fill="#8A65F8"/><rect x="23" y="12" width="34" height="28" rx="9" fill="url(#si-blue)"/><path d="m48 37 5 9-12-7" fill="#586EF1"/><circle cx="33" cy="26" r="2.5" fill="#fff"/><circle cx="40" cy="26" r="2.5" fill="#fff"/><circle cx="47" cy="26" r="2.5" fill="#fff"/><circle cx="14" cy="14" r="5" fill="#FFF6CB"/><path d="m12 14 1.5 1.7L17 12" fill="none" stroke="#F2B73C" stroke-width="1.8" stroke-linecap="round" stroke-linejoin="round"/></g>
  </g>
</svg>
